<?xml version="1.0" encoding="UTF-8" standalone="no"?>
<svg xmlns="http://www.w3.org/2000/svg" width="360" height="360" viewBox="-15 -25 390 400">
<rect x="-15" y="-25" width="100%" height="100%" fill="white"/>
<line x1="180" y1="110" x2="250" y2="110" stroke="#888" stroke-width="1.5"/>
<line x1="180" y1="180" x2="180" y2="250" stroke="#888" stroke-width="1.5"/>
<line x1="110" y1="110" x2="110" y2="180" stroke="#888" stroke-width="1.5"/>
<line x1="180" y1="250" x2="180" y2="320" stroke="#888" stroke-width="1.5"/>
<line x1="40" y1="110" x2="40" y2="180" stroke="#888" stroke-width="1.5"/>
<line x1="110" y1="180" x2="180" y2="180" stroke="#888" stroke-width="1.5"/>
<line x1="250" y1="110" x2="250" y2="180" stroke="#888" stroke-width="1.5"/>
<line x1="110" y1="250" x2="110" y2="320" stroke="#888" stroke-width="1.5"/>
<line x1="180" y1="40" x2="250" y2="40" stroke="#888" stroke-width="1.5"/>
<line x1="110" y1="320" x2="180" y2="320" stroke="#888" stroke-width="1.5"/>
<line x1="40" y1="250" x2="110" y2="250" stroke="#888" stroke-width="1.5"/>
<line x1="320" y1="180" x2="320" y2="250" stroke="#888" stroke-width="1.5"/>
<line x1="110" y1="180" x2="110" y2="250" stroke="#888" stroke-width="1.5"/>
<line x1="40" y1="180" x2="110" y2="180" stroke="#888" stroke-width="1.5"/>
<line x1="180" y1="320" x2="250" y2="320" stroke="#888" stroke-width="1.5"/>
<line x1="320" y1="40" x2="320" y2="110" stroke="#888" stroke-width="1.5"/>
<line x1="320" y1="110" x2="320" y2="180" stroke="#888" stroke-width="1.5"/>
<line x1="40" y1="110" x2="110" y2="110" stroke="#888" stroke-width="1.5"/>
<line x1="180" y1="40" x2="180" y2="110" stroke="#888" stroke-width="1.5"/>
<line x1="180" y1="250" x2="250" y2="250" stroke="#888" stroke-width="1.5"/>
<line x1="110" y1="250" x2="180" y2="250" stroke="#888" stroke-width="1.5"/>
<line x1="250" y1="40" x2="320" y2="40" stroke="#888" stroke-width="1.5"/>
<line x1="40" y1="180" x2="40" y2="250" stroke="#888" stroke-width="1.5"/>
<line x1="40" y1="250" x2="40" y2="320" stroke="#888" stroke-width="1.5"/>
<line x1="250" y1="250" x2="250" y2="320" stroke="#888" stroke-width="1.5"/>
<line x1="250" y1="320" x2="320" y2="320" stroke="#888" stroke-width="1.5"/>
<line x1="250" y1="250" x2="320" y2="250" stroke="#a8e6a8" stroke-width="14"/>
<line x1="250" y1="180" x2="250" y2="250" stroke="#a8e6a8" stroke-width="14"/>
<line x1="40" y1="40" x2="110" y2="40" stroke="#a8e6a8" stroke-width="14"/>
<line x1="320" y1="250" x2="320" y2="320" stroke="#a8e6a8" stroke-width="14"/>
<line x1="180" y1="180" x2="250" y2="180" stroke="#a8e6a8" stroke-width="14"/>
<line x1="110" y1="40" x2="110" y2="110" stroke="#a8e6a8" stroke-width="14"/>
<line x1="110" y1="110" x2="180" y2="110" stroke="#a8e6a8" stroke-width="14"/>
<line x1="180" y1="110" x2="180" y2="180" stroke="#a8e6a8" stroke-width="14"/>
<line x1="250" y1="250" x2="320" y2="250" stroke="#22aa22" stroke-width="4"/>
<line x1="250" y1="180" x2="250" y2="250" stroke="#22aa22" stroke-width="4"/>
<line x1="40" y1="40" x2="110" y2="40" stroke="#22aa22" stroke-width="4"/>
<line x1="320" y1="250" x2="320" y2="320" stroke="#22aa22" stroke-width="4"/>
<line x1="180" y1="180" x2="250" y2="180" stroke="#22aa22" stroke-width="4"/>
<line x1="110" y1="40" x2="110" y2="110" stroke="#22aa22" stroke-width="4"/>
<line x1="110" y1="110" x2="180" y2="110" stroke="#22aa22" stroke-width="4"/>
<line x1="180" y1="110" x2="180" y2="180" stroke="#22aa22" stroke-width="4"/>
<circle cx="40" cy="40" r="5" fill="#333"/>
<circle cx="110" cy="40" r="5" fill="#333"/>
<circle cx="180" cy="40" r="5" fill="#333"/>
<circle cx="250" cy="40" r="5" fill="#333"/>
<circle cx="320" cy="40" r="5" fill="#333"/>
<circle cx="40" cy="110" r="5" fill="#333"/>
<circle cx="110" cy="110" r="5" fill="#333"/>
<circle cx="180" cy="110" r="5" fill="#333"/>
<circle cx="250" cy="110" r="5" fill="#333"/>
<circle cx="320" cy="110" r="5" fill="#333"/>
<circle cx="40" cy="180" r="5" fill="#333"/>
<circle cx="110" cy="180" r="5" fill="#333"/>
<circle cx="180" cy="180" r="5" fill="#333"/>
<circle cx="250" cy="180" r="5" fill="#333"/>
<circle cx="320" cy="180" r="5" fill="#333"/>
<circle cx="40" cy="250" r="5" fill="#333"/>
<circle cx="110" cy="250" r="5" fill="#333"/>
<circle cx="180" cy="250" r="5" fill="#333"/>
<circle cx="250" cy="250" r="5" fill="#333"/>
<circle cx="320" cy="250" r="5" fill="#333"/>
<circle cx="40" cy="320" r="5" fill="#333"/>
<circle cx="110" cy="320" r="5" fill="#333"/>
<circle cx="180" cy="320" r="5" fill="#333"/>
<circle cx="250" cy="320" r="5" fill="#333"/>
<circle cx="320" cy="320" r="5" fill="#333"/>
<circle cx="180" cy="180" r="11" fill="#ffcc00" stroke="black" stroke-width="2"/>
<text x="194" y="170" font-family="serif" font-size="22" font-style="italic" font-weight="bold">w₁</text>
<circle cx="110" cy="110" r="11" fill="#ffcc00" stroke="black" stroke-width="2"/>
<text x="124" y="100" font-family="serif" font-size="22" font-style="italic" font-weight="bold">w₂</text>
<circle cx="250" cy="250" r="11" fill="#ffcc00" stroke="black" stroke-width="2"/>
<text x="264" y="240" font-family="serif" font-size="22" font-style="italic" font-weight="bold">w₃</text>
<circle cx="40" cy="40" r="11" fill="#22aa22" stroke="black" stroke-width="2"/>
<circle cx="320" cy="320" r="11" fill="#22aa22" stroke="black" stroke-width="2"/>
<text x="12" y="48" font-family="serif" font-size="32" font-weight="bold" font-style="italic">s</text>
<text x="335" y="332" font-family="serif" font-size="32" font-weight="bold" font-style="italic">t</text>
</svg>